<svg xmlns="http://www.w3.org/2000/svg" width="900" height="540" viewBox="0 0 900 540">
<rect width="100%" height="100%" fill="#fffdf8" />
<text x="450.0" y="32" text-anchor="middle" font-size="24" font-family="Arial">DGCNN on ModelNet40 fast</text>
<line x1="70" y1="60" x2="70" y2="470" stroke="#444" stroke-width="2" />
<line x1="70" y1="470" x2="870" y2="470" stroke="#444" stroke-width="2" />
<text x="450.0" y="520" text-anchor="middle" font-size="16" font-family="Arial">Epoch</text>
<text x="24" y="270.0" text-anchor="middle" font-size="16" font-family="Arial" transform="rotate(-90 24 270.0)">Value</text>
<line x1="70" y1="470.00" x2="870" y2="470.00" stroke="#ddd" stroke-width="1" />
<text x="60" y="475.00" text-anchor="end" font-size="12" font-family="Arial">0.49</text>
<line x1="70" y1="367.50" x2="870" y2="367.50" stroke="#ddd" stroke-width="1" />
<text x="60" y="372.50" text-anchor="end" font-size="12" font-family="Arial">0.84</text>
<line x1="70" y1="265.00" x2="870" y2="265.00" stroke="#ddd" stroke-width="1" />
<text x="60" y="270.00" text-anchor="end" font-size="12" font-family="Arial">1.19</text>
<line x1="70" y1="162.50" x2="870" y2="162.50" stroke="#ddd" stroke-width="1" />
<text x="60" y="167.50" text-anchor="end" font-size="12" font-family="Arial">1.54</text>
<line x1="70" y1="60.00" x2="870" y2="60.00" stroke="#ddd" stroke-width="1" />
<text x="60" y="65.00" text-anchor="end" font-size="12" font-family="Arial">1.89</text>
<line x1="70.00" y1="60" x2="70.00" y2="470" stroke="#f0f0f0" stroke-width="1" />
<text x="70.00" y="492" text-anchor="middle" font-size="12" font-family="Arial">1</text>
<line x1="103.33" y1="60" x2="103.33" y2="470" stroke="#f0f0f0" stroke-width="1" />
<text x="103.33" y="492" text-anchor="middle" font-size="12" font-family="Arial">2</text>
<line x1="136.67" y1="60" x2="136.67" y2="470" stroke="#f0f0f0" stroke-width="1" />
<text x="136.67" y="492" text-anchor="middle" font-size="12" font-family="Arial">3</text>
<line x1="170.00" y1="60" x2="170.00" y2="470" stroke="#f0f0f0" stroke-width="1" />
<text x="170.00" y="492" text-anchor="middle" font-size="12" font-family="Arial">4</text>
<line x1="203.33" y1="60" x2="203.33" y2="470" stroke="#f0f0f0" stroke-width="1" />
<text x="203.33" y="492" text-anchor="middle" font-size="12" font-family="Arial">5</text>
<line x1="236.67" y1="60" x2="236.67" y2="470" stroke="#f0f0f0" stroke-width="1" />
<text x="236.67" y="492" text-anchor="middle" font-size="12" font-family="Arial">6</text>
<line x1="270.00" y1="60" x2="270.00" y2="470" stroke="#f0f0f0" stroke-width="1" />
<text x="270.00" y="492" text-anchor="middle" font-size="12" font-family="Arial">7</text>
<line x1="303.33" y1="60" x2="303.33" y2="470" stroke="#f0f0f0" stroke-width="1" />
<text x="303.33" y="492" text-anchor="middle" font-size="12" font-family="Arial">8</text>
<line x1="336.67" y1="60" x2="336.67" y2="470" stroke="#f0f0f0" stroke-width="1" />
<text x="336.67" y="492" text-anchor="middle" font-size="12" font-family="Arial">9</text>
<line x1="370.00" y1="60" x2="370.00" y2="470" stroke="#f0f0f0" stroke-width="1" />
<text x="370.00" y="492" text-anchor="middle" font-size="12" font-family="Arial">10</text>
<line x1="403.33" y1="60" x2="403.33" y2="470" stroke="#f0f0f0" stroke-width="1" />
<text x="403.33" y="492" text-anchor="middle" font-size="12" font-family="Arial">11</text>
<line x1="436.67" y1="60" x2="436.67" y2="470" stroke="#f0f0f0" stroke-width="1" />
<text x="436.67" y="492" text-anchor="middle" font-size="12" font-family="Arial">12</text>
<line x1="470.00" y1="60" x2="470.00" y2="470" stroke="#f0f0f0" stroke-width="1" />
<text x="470.00" y="492" text-anchor="middle" font-size="12" font-family="Arial">13</text>
<line x1="503.33" y1="60" x2="503.33" y2="470" stroke="#f0f0f0" stroke-width="1" />
<text x="503.33" y="492" text-anchor="middle" font-size="12" font-family="Arial">14</text>
<line x1="536.67" y1="60" x2="536.67" y2="470" stroke="#f0f0f0" stroke-width="1" />
<text x="536.67" y="492" text-anchor="middle" font-size="12" font-family="Arial">15</text>
<line x1="570.00" y1="60" x2="570.00" y2="470" stroke="#f0f0f0" stroke-width="1" />
<text x="570.00" y="492" text-anchor="middle" font-size="12" font-family="Arial">16</text>
<line x1="603.33" y1="60" x2="603.33" y2="470" stroke="#f0f0f0" stroke-width="1" />
<text x="603.33" y="492" text-anchor="middle" font-size="12" font-family="Arial">17</text>
<line x1="636.67" y1="60" x2="636.67" y2="470" stroke="#f0f0f0" stroke-width="1" />
<text x="636.67" y="492" text-anchor="middle" font-size="12" font-family="Arial">18</text>
<line x1="670.00" y1="60" x2="670.00" y2="470" stroke="#f0f0f0" stroke-width="1" />
<text x="670.00" y="492" text-anchor="middle" font-size="12" font-family="Arial">19</text>
<line x1="703.33" y1="60" x2="703.33" y2="470" stroke="#f0f0f0" stroke-width="1" />
<text x="703.33" y="492" text-anchor="middle" font-size="12" font-family="Arial">20</text>
<line x1="736.67" y1="60" x2="736.67" y2="470" stroke="#f0f0f0" stroke-width="1" />
<text x="736.67" y="492" text-anchor="middle" font-size="12" font-family="Arial">21</text>
<line x1="770.00" y1="60" x2="770.00" y2="470" stroke="#f0f0f0" stroke-width="1" />
<text x="770.00" y="492" text-anchor="middle" font-size="12" font-family="Arial">22</text>
<line x1="803.33" y1="60" x2="803.33" y2="470" stroke="#f0f0f0" stroke-width="1" />
<text x="803.33" y="492" text-anchor="middle" font-size="12" font-family="Arial">23</text>
<line x1="836.67" y1="60" x2="836.67" y2="470" stroke="#f0f0f0" stroke-width="1" />
<text x="836.67" y="492" text-anchor="middle" font-size="12" font-family="Arial">24</text>
<line x1="870.00" y1="60" x2="870.00" y2="470" stroke="#f0f0f0" stroke-width="1" />
<text x="870.00" y="492" text-anchor="middle" font-size="12" font-family="Arial">25</text>
<polyline fill="none" stroke="#d1495b" stroke-width="3" points="70.00,60.00 103.33,262.80 136.67,318.56 170.00,344.69 203.33,366.05 236.67,377.94 270.00,380.12 303.33,394.10 336.67,403.30 370.00,401.99 403.33,408.09 436.67,411.49 470.00,422.33 503.33,419.41 536.67,423.92 570.00,424.46 603.33,433.32 636.67,433.43 670.00,434.89 703.33,434.76 736.67,436.00 770.00,440.75 803.33,441.43 836.67,448.04 870.00,445.46" />
<circle cx="70.00" cy="60.00" r="3.5" fill="#d1495b" />
<circle cx="103.33" cy="262.80" r="3.5" fill="#d1495b" />
<circle cx="136.67" cy="318.56" r="3.5" fill="#d1495b" />
<circle cx="170.00" cy="344.69" r="3.5" fill="#d1495b" />
<circle cx="203.33" cy="366.05" r="3.5" fill="#d1495b" />
<circle cx="236.67" cy="377.94" r="3.5" fill="#d1495b" />
<circle cx="270.00" cy="380.12" r="3.5" fill="#d1495b" />
<circle cx="303.33" cy="394.10" r="3.5" fill="#d1495b" />
<circle cx="336.67" cy="403.30" r="3.5" fill="#d1495b" />
<circle cx="370.00" cy="401.99" r="3.5" fill="#d1495b" />
<circle cx="403.33" cy="408.09" r="3.5" fill="#d1495b" />
<circle cx="436.67" cy="411.49" r="3.5" fill="#d1495b" />
<circle cx="470.00" cy="422.33" r="3.5" fill="#d1495b" />
<circle cx="503.33" cy="419.41" r="3.5" fill="#d1495b" />
<circle cx="536.67" cy="423.92" r="3.5" fill="#d1495b" />
<circle cx="570.00" cy="424.46" r="3.5" fill="#d1495b" />
<circle cx="603.33" cy="433.32" r="3.5" fill="#d1495b" />
<circle cx="636.67" cy="433.43" r="3.5" fill="#d1495b" />
<circle cx="670.00" cy="434.89" r="3.5" fill="#d1495b" />
<circle cx="703.33" cy="434.76" r="3.5" fill="#d1495b" />
<circle cx="736.67" cy="436.00" r="3.5" fill="#d1495b" />
<circle cx="770.00" cy="440.75" r="3.5" fill="#d1495b" />
<circle cx="803.33" cy="441.43" r="3.5" fill="#d1495b" />
<circle cx="836.67" cy="448.04" r="3.5" fill="#d1495b" />
<circle cx="870.00" cy="445.46" r="3.5" fill="#d1495b" />
<line x1="670" y1="40" x2="696" y2="40" stroke="#d1495b" stroke-width="3" />
<text x="704" y="44" font-size="13" font-family="Arial">Train Loss</text>
<polyline fill="none" stroke="#00798c" stroke-width="3" points="70.00,470.00 103.33,425.15 136.67,411.13 170.00,402.82 203.33,398.52 236.67,394.93 270.00,394.27 303.33,389.13 336.67,386.17 370.00,385.81 403.33,384.29 436.67,384.76 470.00,380.28 503.33,380.94 536.67,380.91 570.00,382.04 603.33,378.07 636.67,377.20 670.00,377.77 703.33,377.68 736.67,376.69 770.00,375.17 803.33,375.11 836.67,374.63 870.00,374.36" />
<circle cx="70.00" cy="470.00" r="3.5" fill="#00798c" />
<circle cx="103.33" cy="425.15" r="3.5" fill="#00798c" />
<circle cx="136.67" cy="411.13" r="3.5" fill="#00798c" />
<circle cx="170.00" cy="402.82" r="3.5" fill="#00798c" />
<circle cx="203.33" cy="398.52" r="3.5" fill="#00798c" />
<circle cx="236.67" cy="394.93" r="3.5" fill="#00798c" />
<circle cx="270.00" cy="394.27" r="3.5" fill="#00798c" />
<circle cx="303.33" cy="389.13" r="3.5" fill="#00798c" />
<circle cx="336.67" cy="386.17" r="3.5" fill="#00798c" />
<circle cx="370.00" cy="385.81" r="3.5" fill="#00798c" />
<circle cx="403.33" cy="384.29" r="3.5" fill="#00798c" />
<circle cx="436.67" cy="384.76" r="3.5" fill="#00798c" />
<circle cx="470.00" cy="380.28" r="3.5" fill="#00798c" />
<circle cx="503.33" cy="380.94" r="3.5" fill="#00798c" />
<circle cx="536.67" cy="380.91" r="3.5" fill="#00798c" />
<circle cx="570.00" cy="382.04" r="3.5" fill="#00798c" />
<circle cx="603.33" cy="378.07" r="3.5" fill="#00798c" />
<circle cx="636.67" cy="377.20" r="3.5" fill="#00798c" />
<circle cx="670.00" cy="377.77" r="3.5" fill="#00798c" />
<circle cx="703.33" cy="377.68" r="3.5" fill="#00798c" />
<circle cx="736.67" cy="376.69" r="3.5" fill="#00798c" />
<circle cx="770.00" cy="375.17" r="3.5" fill="#00798c" />
<circle cx="803.33" cy="375.11" r="3.5" fill="#00798c" />
<circle cx="836.67" cy="374.63" r="3.5" fill="#00798c" />
<circle cx="870.00" cy="374.36" r="3.5" fill="#00798c" />
<line x1="670" y1="62" x2="696" y2="62" stroke="#00798c" stroke-width="3" />
<text x="704" y="66" font-size="13" font-family="Arial">Train Accuracy</text>
<polyline fill="none" stroke="#edae49" stroke-width="3" points="70.00,424.31 103.33,390.81 136.67,409.05 170.00,402.14 203.33,376.03 236.67,374.72 270.00,379.97 303.33,379.01 336.67,376.87 370.00,366.97 403.33,365.19 436.67,367.93 470.00,364.83 503.33,365.19 536.67,360.42 570.00,362.92 603.33,361.73 636.67,362.92 670.00,364.59 703.33,362.80 736.67,364.95 770.00,362.92 803.33,361.25 836.67,361.25 870.00,358.99" />
<circle cx="70.00" cy="424.31" r="3.5" fill="#edae49" />
<circle cx="103.33" cy="390.81" r="3.5" fill="#edae49" />
<circle cx="136.67" cy="409.05" r="3.5" fill="#edae49" />
<circle cx="170.00" cy="402.14" r="3.5" fill="#edae49" />
<circle cx="203.33" cy="376.03" r="3.5" fill="#edae49" />
<circle cx="236.67" cy="374.72" r="3.5" fill="#edae49" />
<circle cx="270.00" cy="379.97" r="3.5" fill="#edae49" />
<circle cx="303.33" cy="379.01" r="3.5" fill="#edae49" />
<circle cx="336.67" cy="376.87" r="3.5" fill="#edae49" />
<circle cx="370.00" cy="366.97" r="3.5" fill="#edae49" />
<circle cx="403.33" cy="365.19" r="3.5" fill="#edae49" />
<circle cx="436.67" cy="367.93" r="3.5" fill="#edae49" />
<circle cx="470.00" cy="364.83" r="3.5" fill="#edae49" />
<circle cx="503.33" cy="365.19" r="3.5" fill="#edae49" />
<circle cx="536.67" cy="360.42" r="3.5" fill="#edae49" />
<circle cx="570.00" cy="362.92" r="3.5" fill="#edae49" />
<circle cx="603.33" cy="361.73" r="3.5" fill="#edae49" />
<circle cx="636.67" cy="362.92" r="3.5" fill="#edae49" />
<circle cx="670.00" cy="364.59" r="3.5" fill="#edae49" />
<circle cx="703.33" cy="362.80" r="3.5" fill="#edae49" />
<circle cx="736.67" cy="364.95" r="3.5" fill="#edae49" />
<circle cx="770.00" cy="362.92" r="3.5" fill="#edae49" />
<circle cx="803.33" cy="361.25" r="3.5" fill="#edae49" />
<circle cx="836.67" cy="361.25" r="3.5" fill="#edae49" />
<circle cx="870.00" cy="358.99" r="3.5" fill="#edae49" />
<line x1="670" y1="84" x2="696" y2="84" stroke="#edae49" stroke-width="3" />
<text x="704" y="88" font-size="13" font-family="Arial">Validation Accuracy</text>
</svg>