<svg xmlns="http://www.w3.org/2000/svg" width="900" height="540" viewBox="0 0 900 540">
<rect width="100%" height="100%" fill="#fffdf8" />
<text x="450.0" y="32" text-anchor="middle" font-size="24" font-family="Arial">dgcnn_scanobjectnn_test</text>
<line x1="70" y1="60" x2="70" y2="470" stroke="#444" stroke-width="2" />
<line x1="70" y1="470" x2="870" y2="470" stroke="#444" stroke-width="2" />
<text x="450.0" y="520" text-anchor="middle" font-size="16" font-family="Arial">Epoch</text>
<text x="24" y="270.0" text-anchor="middle" font-size="16" font-family="Arial" transform="rotate(-90 24 270.0)">Value</text>
<line x1="70" y1="470.00" x2="870" y2="470.00" stroke="#ddd" stroke-width="1" />
<text x="60" y="475.00" text-anchor="end" font-size="12" font-family="Arial">0.50</text>
<line x1="70" y1="367.50" x2="870" y2="367.50" stroke="#ddd" stroke-width="1" />
<text x="60" y="372.50" text-anchor="end" font-size="12" font-family="Arial">0.72</text>
<line x1="70" y1="265.00" x2="870" y2="265.00" stroke="#ddd" stroke-width="1" />
<text x="60" y="270.00" text-anchor="end" font-size="12" font-family="Arial">0.94</text>
<line x1="70" y1="162.50" x2="870" y2="162.50" stroke="#ddd" stroke-width="1" />
<text x="60" y="167.50" text-anchor="end" font-size="12" font-family="Arial">1.17</text>
<line x1="70" y1="60.00" x2="870" y2="60.00" stroke="#ddd" stroke-width="1" />
<text x="60" y="65.00" text-anchor="end" font-size="12" font-family="Arial">1.39</text>
<line x1="70.00" y1="60" x2="70.00" y2="470" stroke="#f0f0f0" stroke-width="1" />
<text x="70.00" y="492" text-anchor="middle" font-size="12" font-family="Arial">1</text>
<line x1="230.00" y1="60" x2="230.00" y2="470" stroke="#f0f0f0" stroke-width="1" />
<text x="230.00" y="492" text-anchor="middle" font-size="12" font-family="Arial">2</text>
<line x1="390.00" y1="60" x2="390.00" y2="470" stroke="#f0f0f0" stroke-width="1" />
<text x="390.00" y="492" text-anchor="middle" font-size="12" font-family="Arial">3</text>
<line x1="550.00" y1="60" x2="550.00" y2="470" stroke="#f0f0f0" stroke-width="1" />
<text x="550.00" y="492" text-anchor="middle" font-size="12" font-family="Arial">4</text>
<line x1="710.00" y1="60" x2="710.00" y2="470" stroke="#f0f0f0" stroke-width="1" />
<text x="710.00" y="492" text-anchor="middle" font-size="12" font-family="Arial">5</text>
<line x1="870.00" y1="60" x2="870.00" y2="470" stroke="#f0f0f0" stroke-width="1" />
<text x="870.00" y="492" text-anchor="middle" font-size="12" font-family="Arial">6</text>
<polyline fill="none" stroke="#d1495b" stroke-width="3" points="70.00,60.00 230.00,190.93 390.00,234.11 550.00,258.48 710.00,284.05 870.00,283.31" />
<circle cx="70.00" cy="60.00" r="3.5" fill="#d1495b" />
<circle cx="230.00" cy="190.93" r="3.5" fill="#d1495b" />
<circle cx="390.00" cy="234.11" r="3.5" fill="#d1495b" />
<circle cx="550.00" cy="258.48" r="3.5" fill="#d1495b" />
<circle cx="710.00" cy="284.05" r="3.5" fill="#d1495b" />
<circle cx="870.00" cy="283.31" r="3.5" fill="#d1495b" />
<line x1="670" y1="40" x2="696" y2="40" stroke="#d1495b" stroke-width="3" />
<text x="704" y="44" font-size="13" font-family="Arial">Train Loss</text>
<polyline fill="none" stroke="#00798c" stroke-width="3" points="70.00,470.00 230.00,427.85 390.00,409.45 550.00,401.04 710.00,393.31 870.00,393.54" />
<circle cx="70.00" cy="470.00" r="3.5" fill="#00798c" />
<circle cx="230.00" cy="427.85" r="3.5" fill="#00798c" />
<circle cx="390.00" cy="409.45" r="3.5" fill="#00798c" />
<circle cx="550.00" cy="401.04" r="3.5" fill="#00798c" />
<circle cx="710.00" cy="393.31" r="3.5" fill="#00798c" />
<circle cx="870.00" cy="393.54" r="3.5" fill="#00798c" />
<line x1="670" y1="62" x2="696" y2="62" stroke="#00798c" stroke-width="3" />
<text x="704" y="66" font-size="13" font-family="Arial">Train Accuracy</text>
<polyline fill="none" stroke="#edae49" stroke-width="3" points="70.00,442.96 230.00,447.96 390.00,447.51 550.00,408.42 710.00,397.52 870.00,407.06" />
<circle cx="70.00" cy="442.96" r="3.5" fill="#edae49" />
<circle cx="230.00" cy="447.96" r="3.5" fill="#edae49" />
<circle cx="390.00" cy="447.51" r="3.5" fill="#edae49" />
<circle cx="550.00" cy="408.42" r="3.5" fill="#edae49" />
<circle cx="710.00" cy="397.52" r="3.5" fill="#edae49" />
<circle cx="870.00" cy="407.06" r="3.5" fill="#edae49" />
<line x1="670" y1="84" x2="696" y2="84" stroke="#edae49" stroke-width="3" />
<text x="704" y="88" font-size="13" font-family="Arial">Validation Accuracy</text>
</svg>