<svg xmlns="http://www.w3.org/2000/svg" width="900" height="540" viewBox="0 0 900 540">
<rect width="100%" height="100%" fill="#fffdf8" />
<text x="450.0" y="32" text-anchor="middle" font-size="24" font-family="Arial">PointNet++ on ScanObjectNN lightweight</text>
<line x1="70" y1="60" x2="70" y2="470" stroke="#444" stroke-width="2" />
<line x1="70" y1="470" x2="870" y2="470" stroke="#444" stroke-width="2" />
<text x="450.0" y="520" text-anchor="middle" font-size="16" font-family="Arial">Epoch</text>
<text x="24" y="270.0" text-anchor="middle" font-size="16" font-family="Arial" transform="rotate(-90 24 270.0)">Value</text>
<line x1="70" y1="470.00" x2="870" y2="470.00" stroke="#ddd" stroke-width="1" />
<text x="60" y="475.00" text-anchor="end" font-size="12" font-family="Arial">0.54</text>
<line x1="70" y1="367.50" x2="870" y2="367.50" stroke="#ddd" stroke-width="1" />
<text x="60" y="372.50" text-anchor="end" font-size="12" font-family="Arial">0.72</text>
<line x1="70" y1="265.00" x2="870" y2="265.00" stroke="#ddd" stroke-width="1" />
<text x="60" y="270.00" text-anchor="end" font-size="12" font-family="Arial">0.91</text>
<line x1="70" y1="162.50" x2="870" y2="162.50" stroke="#ddd" stroke-width="1" />
<text x="60" y="167.50" text-anchor="end" font-size="12" font-family="Arial">1.09</text>
<line x1="70" y1="60.00" x2="870" y2="60.00" stroke="#ddd" stroke-width="1" />
<text x="60" y="65.00" text-anchor="end" font-size="12" font-family="Arial">1.28</text>
<line x1="70.00" y1="60" x2="70.00" y2="470" stroke="#f0f0f0" stroke-width="1" />
<text x="70.00" y="492" text-anchor="middle" font-size="12" font-family="Arial">1</text>
<line x1="230.00" y1="60" x2="230.00" y2="470" stroke="#f0f0f0" stroke-width="1" />
<text x="230.00" y="492" text-anchor="middle" font-size="12" font-family="Arial">2</text>
<line x1="390.00" y1="60" x2="390.00" y2="470" stroke="#f0f0f0" stroke-width="1" />
<text x="390.00" y="492" text-anchor="middle" font-size="12" font-family="Arial">3</text>
<line x1="550.00" y1="60" x2="550.00" y2="470" stroke="#f0f0f0" stroke-width="1" />
<text x="550.00" y="492" text-anchor="middle" font-size="12" font-family="Arial">4</text>
<line x1="710.00" y1="60" x2="710.00" y2="470" stroke="#f0f0f0" stroke-width="1" />
<text x="710.00" y="492" text-anchor="middle" font-size="12" font-family="Arial">5</text>
<line x1="870.00" y1="60" x2="870.00" y2="470" stroke="#f0f0f0" stroke-width="1" />
<text x="870.00" y="492" text-anchor="middle" font-size="12" font-family="Arial">6</text>
<polyline fill="none" stroke="#d1495b" stroke-width="3" points="70.00,60.00 230.00,195.85 390.00,236.40 550.00,278.92 710.00,294.49 870.00,321.00" />
<circle cx="70.00" cy="60.00" r="3.5" fill="#d1495b" />
<circle cx="230.00" cy="195.85" r="3.5" fill="#d1495b" />
<circle cx="390.00" cy="236.40" r="3.5" fill="#d1495b" />
<circle cx="550.00" cy="278.92" r="3.5" fill="#d1495b" />
<circle cx="710.00" cy="294.49" r="3.5" fill="#d1495b" />
<circle cx="870.00" cy="321.00" r="3.5" fill="#d1495b" />
<line x1="670" y1="40" x2="696" y2="40" stroke="#d1495b" stroke-width="3" />
<text x="704" y="44" font-size="13" font-family="Arial">Train Loss</text>
<polyline fill="none" stroke="#00798c" stroke-width="3" points="70.00,470.00 230.00,431.87 390.00,415.67 550.00,396.60 710.00,387.07 870.00,377.40" />
<circle cx="70.00" cy="470.00" r="3.5" fill="#00798c" />
<circle cx="230.00" cy="431.87" r="3.5" fill="#00798c" />
<circle cx="390.00" cy="415.67" r="3.5" fill="#00798c" />
<circle cx="550.00" cy="396.60" r="3.5" fill="#00798c" />
<circle cx="710.00" cy="387.07" r="3.5" fill="#00798c" />
<circle cx="870.00" cy="377.40" r="3.5" fill="#00798c" />
<line x1="670" y1="62" x2="696" y2="62" stroke="#00798c" stroke-width="3" />
<text x="704" y="66" font-size="13" font-family="Arial">Train Accuracy</text>
<polyline fill="none" stroke="#edae49" stroke-width="3" points="70.00,447.26 230.00,407.50 390.00,422.75 550.00,383.53 710.00,361.74 870.00,357.39" />
<circle cx="70.00" cy="447.26" r="3.5" fill="#edae49" />
<circle cx="230.00" cy="407.50" r="3.5" fill="#edae49" />
<circle cx="390.00" cy="422.75" r="3.5" fill="#edae49" />
<circle cx="550.00" cy="383.53" r="3.5" fill="#edae49" />
<circle cx="710.00" cy="361.74" r="3.5" fill="#edae49" />
<circle cx="870.00" cy="357.39" r="3.5" fill="#edae49" />
<line x1="670" y1="84" x2="696" y2="84" stroke="#edae49" stroke-width="3" />
<text x="704" y="88" font-size="13" font-family="Arial">Validation Accuracy</text>
</svg>